<svg width="29" height="26" viewBox="0 0 29 26" fill="none" xmlns="http://www.w3.org/2000/svg">
<path d="M4.43903 4.24997C-1.47962 8.52449 -1.47971 17.3384 4.43886 21.6131L10.0114 25.6378C10.4279 25.9386 10.9903 25.9386 11.4068 25.6378C12.0654 25.1621 12.0654 24.1813 11.4068 23.7056L8.16259 21.3625C4.95214 19.0438 6.59239 13.9713 10.5526 13.9713H27.9604C28.5346 13.9713 29 13.5058 29 12.9317C29 12.3575 28.5346 11.8921 27.9604 11.8921H10.5526C6.5924 11.8921 4.95214 6.81955 8.16259 4.50084L11.4068 2.15772C12.0654 1.68204 12.0654 0.701246 11.4068 0.225572C10.9903 -0.0752501 10.4279 -0.0752557 10.0114 0.225559L4.43903 4.24997Z" fill="white"/>
</svg>
